<svg xmlns="http://www.w3.org/2000/svg" viewBox="0 0 1000 1000" width="1000" height="1000">
  <!-- Outer circle -->
  <circle cx="500" cy="500" r="400" fill="none" stroke="white" stroke-width="9"/>

  <!-- 3 rotated ellipses -->
  <path d="M 900.00,500.00 L 899.94,503.35 L 899.76,506.70 L 899.45,510.05 L 899.03,513.39 L 898.48,516.73 L 897.81,520.07 L 897.02,523.40 L 896.11,526.72 L 895.08,530.04 L 893.92,533.34 L 892.65,536.64 L 891.26,539.92 L 889.75,543.19 L 888.12,546.45 L 886.37,549.69 L 884.50,552.92 L 882.52,556.14 L 880.42,559.33 L 878.21,562.51 L 875.88,565.67 L 873.43,568.81 L 870.87,571.92 L 868.20,575.02 L 865.42,578.09 L 862.52,581.14 L 859.52,584.17 L 856.40,587.17 L 853.18,590.14 L 849.85,593.08 L 846.41,596.00 L 842.87,598.89 L 839.22,601.74 L 835.47,604.57 L 831.62,607.37 L 827.66,610.13 L 823.61,612.85 L 819.45,615.55 L 815.20,618.21 L 810.86,620.83 L 806.42,623.42 L 801.88,625.96 L 797.26,628.47 L 792.54,630.94 L 787.74,633.37 L 782.84,635.76 L 777.86,638.11 L 772.80,640.42 L 767.65,642.68 L 762.42,644.90 L 757.12,647.08 L 751.73,649.21 L 746.26,651.30 L 740.73,653.34 L 735.11,655.33 L 729.43,657.28 L 723.68,659.18 L 717.86,661.02 L 711.97,662.83 L 706.02,664.58 L 700.00,666.28 L 693.92,667.93 L 687.79,669.53 L 681.60,671.07 L 675.35,672.57 L 669.05,674.01 L 662.69,675.40 L 656.29,676.74 L 649.84,678.02 L 643.35,679.25 L 636.81,680.42 L 630.23,681.54 L 623.61,682.60 L 616.95,683.61 L 610.25,684.56 L 603.53,685.46 L 596.77,686.30 L 589.98,687.08 L 583.16,687.80 L 576.32,688.47 L 569.46,689.08 L 562.57,689.64 L 555.67,690.13 L 548.75,690.57 L 541.81,690.95 L 534.86,691.27 L 527.90,691.53 L 520.93,691.74 L 513.96,691.88 L 506.98,691.97 L 500.00,692.00 L 493.02,691.97 L 486.04,691.88 L 479.07,691.74 L 472.10,691.53 L 465.14,691.27 L 458.19,690.95 L 451.25,690.57 L 444.33,690.13 L 437.43,689.64 L 430.54,689.08 L 423.68,688.47 L 416.84,687.80 L 410.02,687.08 L 403.23,686.30 L 396.47,685.46 L 389.75,684.56 L 383.05,683.61 L 376.39,682.60 L 369.77,681.54 L 363.19,680.42 L 356.65,679.25 L 350.16,678.02 L 343.71,676.74 L 337.31,675.40 L 330.95,674.01 L 324.65,672.57 L 318.40,671.07 L 312.21,669.53 L 306.08,667.93 L 300.00,666.28 L 293.98,664.58 L 288.03,662.83 L 282.14,661.02 L 276.32,659.18 L 270.57,657.28 L 264.89,655.33 L 259.27,653.34 L 253.74,651.30 L 248.27,649.21 L 242.88,647.08 L 237.58,644.90 L 232.35,642.68 L 227.20,640.42 L 222.14,638.11 L 217.16,635.76 L 212.26,633.37 L 207.46,630.94 L 202.74,628.47 L 198.12,625.96 L 193.58,623.42 L 189.14,620.83 L 184.80,618.21 L 180.55,615.55 L 176.39,612.85 L 172.34,610.13 L 168.38,607.37 L 164.53,604.57 L 160.78,601.74 L 157.13,598.89 L 153.59,596.00 L 150.15,593.08 L 146.82,590.14 L 143.60,587.17 L 140.48,584.17 L 137.48,581.14 L 134.58,578.09 L 131.80,575.02 L 129.13,571.92 L 126.57,568.81 L 124.12,565.67 L 121.79,562.51 L 119.58,559.33 L 117.48,556.14 L 115.50,552.92 L 113.63,549.69 L 111.88,546.45 L 110.25,543.19 L 108.74,539.92 L 107.35,536.64 L 106.08,533.34 L 104.92,530.04 L 103.89,526.72 L 102.98,523.40 L 102.19,520.07 L 101.52,516.73 L 100.97,513.39 L 100.55,510.05 L 100.24,506.70 L 100.06,503.35 L 100.00,500.00 L 100.06,496.65 L 100.24,493.30 L 100.55,489.95 L 100.97,486.61 L 101.52,483.27 L 102.19,479.93 L 102.98,476.60 L 103.89,473.28 L 104.92,469.96 L 106.08,466.66 L 107.35,463.36 L 108.74,460.08 L 110.25,456.81 L 111.88,453.55 L 113.63,450.31 L 115.50,447.08 L 117.48,443.86 L 119.58,440.67 L 121.79,437.49 L 124.12,434.33 L 126.57,431.19 L 129.13,428.08 L 131.80,424.98 L 134.58,421.91 L 137.48,418.86 L 140.48,415.83 L 143.60,412.83 L 146.82,409.86 L 150.15,406.92 L 153.59,404.00 L 157.13,401.11 L 160.78,398.26 L 164.53,395.43 L 168.38,392.63 L 172.34,389.87 L 176.39,387.15 L 180.55,384.45 L 184.80,381.79 L 189.14,379.17 L 193.58,376.58 L 198.12,374.04 L 202.74,371.53 L 207.46,369.06 L 212.26,366.63 L 217.16,364.24 L 222.14,361.89 L 227.20,359.58 L 232.35,357.32 L 237.58,355.10 L 242.88,352.92 L 248.27,350.79 L 253.74,348.70 L 259.27,346.66 L 264.89,344.67 L 270.57,342.72 L 276.32,340.82 L 282.14,338.98 L 288.03,337.17 L 293.98,335.42 L 300.00,333.72 L 306.08,332.07 L 312.21,330.47 L 318.40,328.93 L 324.65,327.43 L 330.95,325.99 L 337.31,324.60 L 343.71,323.26 L 350.16,321.98 L 356.65,320.75 L 363.19,319.58 L 369.77,318.46 L 376.39,317.40 L 383.05,316.39 L 389.75,315.44 L 396.47,314.54 L 403.23,313.70 L 410.02,312.92 L 416.84,312.20 L 423.68,311.53 L 430.54,310.92 L 437.43,310.36 L 444.33,309.87 L 451.25,309.43 L 458.19,309.05 L 465.14,308.73 L 472.10,308.47 L 479.07,308.26 L 486.04,308.12 L 493.02,308.03 L 500.00,308.00 L 506.98,308.03 L 513.96,308.12 L 520.93,308.26 L 527.90,308.47 L 534.86,308.73 L 541.81,309.05 L 548.75,309.43 L 555.67,309.87 L 562.57,310.36 L 569.46,310.92 L 576.32,311.53 L 583.16,312.20 L 589.98,312.92 L 596.77,313.70 L 603.53,314.54 L 610.25,315.44 L 616.95,316.39 L 623.61,317.40 L 630.23,318.46 L 636.81,319.58 L 643.35,320.75 L 649.84,321.98 L 656.29,323.26 L 662.69,324.60 L 669.05,325.99 L 675.35,327.43 L 681.60,328.93 L 687.79,330.47 L 693.92,332.07 L 700.00,333.72 L 706.02,335.42 L 711.97,337.17 L 717.86,338.98 L 723.68,340.82 L 729.43,342.72 L 735.11,344.67 L 740.73,346.66 L 746.26,348.70 L 751.73,350.79 L 757.12,352.92 L 762.42,355.10 L 767.65,357.32 L 772.80,359.58 L 777.86,361.89 L 782.84,364.24 L 787.74,366.63 L 792.54,369.06 L 797.26,371.53 L 801.88,374.04 L 806.42,376.58 L 810.86,379.17 L 815.20,381.79 L 819.45,384.45 L 823.61,387.15 L 827.66,389.87 L 831.62,392.63 L 835.47,395.43 L 839.22,398.26 L 842.87,401.11 L 846.41,404.00 L 849.85,406.92 L 853.18,409.86 L 856.40,412.83 L 859.52,415.83 L 862.52,418.86 L 865.42,421.91 L 868.20,424.98 L 870.87,428.08 L 873.43,431.19 L 875.88,434.33 L 878.21,437.49 L 880.42,440.67 L 882.52,443.86 L 884.50,447.08 L 886.37,450.31 L 888.12,453.55 L 889.75,456.81 L 891.26,460.08 L 892.65,463.36 L 893.92,466.66 L 895.08,469.96 L 896.11,473.28 L 897.02,476.60 L 897.81,479.93 L 898.48,483.27 L 899.03,486.61 L 899.45,489.95 L 899.76,493.30 L 899.94,496.65 L 900.00,500.00 Z" fill="none" stroke="white" stroke-width="9"/>
  <path d="M 700.00,846.41 L 697.07,848.03 L 694.08,849.55 L 691.02,850.96 L 687.91,852.26 L 684.75,853.46 L 681.52,854.55 L 678.25,855.53 L 674.91,856.40 L 671.53,857.16 L 668.09,857.82 L 664.60,858.36 L 661.06,858.80 L 657.47,859.13 L 653.83,859.34 L 650.15,859.45 L 646.42,859.45 L 642.65,859.34 L 638.83,859.12 L 634.97,858.79 L 631.07,858.35 L 627.13,857.81 L 623.15,857.15 L 619.13,856.38 L 615.08,855.51 L 610.99,854.53 L 606.87,853.44 L 602.71,852.24 L 598.53,850.93 L 594.31,849.52 L 590.07,848.00 L 585.79,846.38 L 581.50,844.64 L 577.17,842.81 L 572.83,840.87 L 568.46,838.83 L 564.07,836.68 L 559.66,834.43 L 555.23,832.08 L 550.79,829.63 L 546.33,827.07 L 541.85,824.42 L 537.37,821.67 L 532.87,818.82 L 528.36,815.87 L 523.85,812.83 L 519.32,809.69 L 514.79,806.46 L 510.26,803.14 L 505.72,799.72 L 501.18,796.21 L 496.64,792.61 L 492.10,788.92 L 487.57,785.14 L 483.04,781.28 L 478.51,777.33 L 473.99,773.30 L 469.48,769.18 L 464.97,764.98 L 460.48,760.70 L 456.00,756.34 L 451.53,751.91 L 447.08,747.39 L 442.64,742.80 L 438.23,738.14 L 433.83,733.40 L 429.45,728.60 L 425.09,723.72 L 420.75,718.78 L 416.44,713.77 L 412.15,708.69 L 407.90,703.55 L 403.66,698.35 L 399.46,693.09 L 395.29,687.76 L 391.15,682.39 L 387.05,676.95 L 382.97,671.46 L 378.94,665.92 L 374.94,660.33 L 370.98,654.70 L 367.06,649.01 L 363.18,643.28 L 359.34,637.50 L 355.54,631.68 L 351.79,625.83 L 348.08,619.93 L 344.42,614.00 L 340.80,608.03 L 337.24,602.03 L 333.72,596.00 L 330.26,589.94 L 326.84,583.85 L 323.48,577.74 L 320.18,571.60 L 316.92,565.44 L 313.73,559.26 L 310.59,553.07 L 307.51,546.85 L 304.48,540.63 L 301.52,534.39 L 298.62,528.14 L 295.77,521.88 L 292.99,515.61 L 290.28,509.34 L 287.63,503.07 L 285.04,496.80 L 282.51,490.52 L 280.06,484.25 L 277.67,477.99 L 275.35,471.73 L 273.09,465.48 L 270.91,459.24 L 268.80,453.02 L 266.75,446.80 L 264.78,440.61 L 262.88,434.43 L 261.05,428.27 L 259.29,422.13 L 257.61,416.02 L 256.00,409.93 L 254.47,403.87 L 253.01,397.84 L 251.62,391.84 L 250.31,385.88 L 249.08,379.95 L 247.92,374.05 L 246.84,368.19 L 245.84,362.38 L 244.91,356.60 L 244.07,350.87 L 243.30,345.19 L 242.61,339.55 L 241.99,333.96 L 241.46,328.42 L 241.00,322.93 L 240.63,317.50 L 240.33,312.12 L 240.11,306.80 L 239.97,301.54 L 239.91,296.34 L 239.93,291.20 L 240.03,286.13 L 240.20,281.12 L 240.46,276.18 L 240.80,271.30 L 241.21,266.50 L 241.71,261.76 L 242.28,257.10 L 242.93,252.51 L 243.66,248.00 L 244.46,243.56 L 245.35,239.21 L 246.31,234.93 L 247.35,230.73 L 248.47,226.62 L 249.66,222.59 L 250.93,218.64 L 252.27,214.78 L 253.70,211.00 L 255.19,207.31 L 256.76,203.72 L 258.41,200.21 L 260.12,196.79 L 261.92,193.47 L 263.78,190.24 L 265.71,187.10 L 267.72,184.06 L 269.80,181.12 L 271.95,178.27 L 274.16,175.52 L 276.45,172.87 L 278.81,170.32 L 281.23,167.87 L 283.71,165.52 L 286.27,163.27 L 288.89,161.13 L 291.57,159.09 L 294.32,157.15 L 297.13,155.32 L 300.00,153.59 L 302.93,151.97 L 305.92,150.45 L 308.98,149.04 L 312.09,147.74 L 315.25,146.54 L 318.48,145.45 L 321.75,144.47 L 325.09,143.60 L 328.47,142.84 L 331.91,142.18 L 335.40,141.64 L 338.94,141.20 L 342.53,140.87 L 346.17,140.66 L 349.85,140.55 L 353.58,140.55 L 357.35,140.66 L 361.17,140.88 L 365.03,141.21 L 368.93,141.65 L 372.87,142.19 L 376.85,142.85 L 380.87,143.62 L 384.92,144.49 L 389.01,145.47 L 393.13,146.56 L 397.29,147.76 L 401.47,149.07 L 405.69,150.48 L 409.93,152.00 L 414.21,153.62 L 418.50,155.36 L 422.83,157.19 L 427.17,159.13 L 431.54,161.17 L 435.93,163.32 L 440.34,165.57 L 444.77,167.92 L 449.21,170.37 L 453.67,172.93 L 458.15,175.58 L 462.63,178.33 L 467.13,181.18 L 471.64,184.13 L 476.15,187.17 L 480.68,190.31 L 485.21,193.54 L 489.74,196.86 L 494.28,200.28 L 498.82,203.79 L 503.36,207.39 L 507.90,211.08 L 512.43,214.86 L 516.96,218.72 L 521.49,222.67 L 526.01,226.70 L 530.52,230.82 L 535.03,235.02 L 539.52,239.30 L 544.00,243.66 L 548.47,248.09 L 552.92,252.61 L 557.36,257.20 L 561.77,261.86 L 566.17,266.60 L 570.55,271.40 L 574.91,276.28 L 579.25,281.22 L 583.56,286.23 L 587.85,291.31 L 592.10,296.45 L 596.34,301.65 L 600.54,306.91 L 604.71,312.24 L 608.85,317.61 L 612.95,323.05 L 617.03,328.54 L 621.06,334.08 L 625.06,339.67 L 629.02,345.30 L 632.94,350.99 L 636.82,356.72 L 640.66,362.50 L 644.46,368.32 L 648.21,374.17 L 651.92,380.07 L 655.58,386.00 L 659.20,391.97 L 662.76,397.97 L 666.28,404.00 L 669.74,410.06 L 673.16,416.15 L 676.52,422.26 L 679.82,428.40 L 683.08,434.56 L 686.27,440.74 L 689.41,446.93 L 692.49,453.15 L 695.52,459.37 L 698.48,465.61 L 701.38,471.86 L 704.23,478.12 L 707.01,484.39 L 709.72,490.66 L 712.37,496.93 L 714.96,503.20 L 717.49,509.48 L 719.94,515.75 L 722.33,522.01 L 724.65,528.27 L 726.91,534.52 L 729.09,540.76 L 731.20,546.98 L 733.25,553.20 L 735.22,559.39 L 737.12,565.57 L 738.95,571.73 L 740.71,577.87 L 742.39,583.98 L 744.00,590.07 L 745.53,596.13 L 746.99,602.16 L 748.38,608.16 L 749.69,614.12 L 750.92,620.05 L 752.08,625.95 L 753.16,631.81 L 754.16,637.62 L 755.09,643.40 L 755.93,649.13 L 756.70,654.81 L 757.39,660.45 L 758.01,666.04 L 758.54,671.58 L 759.00,677.07 L 759.37,682.50 L 759.67,687.88 L 759.89,693.20 L 760.03,698.46 L 760.09,703.66 L 760.07,708.80 L 759.97,713.87 L 759.80,718.88 L 759.54,723.82 L 759.20,728.70 L 758.79,733.50 L 758.29,738.24 L 757.72,742.90 L 757.07,747.49 L 756.34,752.00 L 755.54,756.44 L 754.65,760.79 L 753.69,765.07 L 752.65,769.27 L 751.53,773.38 L 750.34,777.41 L 749.07,781.36 L 747.73,785.22 L 746.30,789.00 L 744.81,792.69 L 743.24,796.28 L 741.59,799.79 L 739.88,803.21 L 738.08,806.53 L 736.22,809.76 L 734.29,812.90 L 732.28,815.94 L 730.20,818.88 L 728.05,821.73 L 725.84,824.48 L 723.55,827.13 L 721.19,829.68 L 718.77,832.13 L 716.29,834.48 L 713.73,836.73 L 711.11,838.87 L 708.43,840.91 L 705.68,842.85 L 702.87,844.68 L 700.00,846.41 Z" fill="none" stroke="white" stroke-width="9"/>
  <path d="M 700.00,153.59 L 702.87,155.32 L 705.68,157.15 L 708.43,159.09 L 711.11,161.13 L 713.73,163.27 L 716.29,165.52 L 718.77,167.87 L 721.19,170.32 L 723.55,172.87 L 725.84,175.52 L 728.05,178.27 L 730.20,181.12 L 732.28,184.06 L 734.29,187.10 L 736.22,190.24 L 738.08,193.47 L 739.88,196.79 L 741.59,200.21 L 743.24,203.72 L 744.81,207.31 L 746.30,211.00 L 747.73,214.78 L 749.07,218.64 L 750.34,222.59 L 751.53,226.62 L 752.65,230.73 L 753.69,234.93 L 754.65,239.21 L 755.54,243.56 L 756.34,248.00 L 757.07,252.51 L 757.72,257.10 L 758.29,261.76 L 758.79,266.50 L 759.20,271.30 L 759.54,276.18 L 759.80,281.12 L 759.97,286.13 L 760.07,291.20 L 760.09,296.34 L 760.03,301.54 L 759.89,306.80 L 759.67,312.12 L 759.37,317.50 L 759.00,322.93 L 758.54,328.42 L 758.01,333.96 L 757.39,339.55 L 756.70,345.19 L 755.93,350.87 L 755.09,356.60 L 754.16,362.38 L 753.16,368.19 L 752.08,374.05 L 750.92,379.95 L 749.69,385.88 L 748.38,391.84 L 746.99,397.84 L 745.53,403.87 L 744.00,409.93 L 742.39,416.02 L 740.71,422.13 L 738.95,428.27 L 737.12,434.43 L 735.22,440.61 L 733.25,446.80 L 731.20,453.02 L 729.09,459.24 L 726.91,465.48 L 724.65,471.73 L 722.33,477.99 L 719.94,484.25 L 717.49,490.52 L 714.96,496.80 L 712.37,503.07 L 709.72,509.34 L 707.01,515.61 L 704.23,521.88 L 701.38,528.14 L 698.48,534.39 L 695.52,540.63 L 692.49,546.85 L 689.41,553.07 L 686.27,559.26 L 683.08,565.44 L 679.82,571.60 L 676.52,577.74 L 673.16,583.85 L 669.74,589.94 L 666.28,596.00 L 662.76,602.03 L 659.20,608.03 L 655.58,614.00 L 651.92,619.93 L 648.21,625.83 L 644.46,631.68 L 640.66,637.50 L 636.82,643.28 L 632.94,649.01 L 629.02,654.70 L 625.06,660.33 L 621.06,665.92 L 617.03,671.46 L 612.95,676.95 L 608.85,682.39 L 604.71,687.76 L 600.54,693.09 L 596.34,698.35 L 592.10,703.55 L 587.85,708.69 L 583.56,713.77 L 579.25,718.78 L 574.91,723.72 L 570.55,728.60 L 566.17,733.40 L 561.77,738.14 L 557.36,742.80 L 552.92,747.39 L 548.47,751.91 L 544.00,756.34 L 539.52,760.70 L 535.03,764.98 L 530.52,769.18 L 526.01,773.30 L 521.49,777.33 L 516.96,781.28 L 512.43,785.14 L 507.90,788.92 L 503.36,792.61 L 498.82,796.21 L 494.28,799.72 L 489.74,803.14 L 485.21,806.46 L 480.68,809.69 L 476.15,812.83 L 471.64,815.87 L 467.13,818.82 L 462.63,821.67 L 458.15,824.42 L 453.67,827.07 L 449.21,829.63 L 444.77,832.08 L 440.34,834.43 L 435.93,836.68 L 431.54,838.83 L 427.17,840.87 L 422.83,842.81 L 418.50,844.64 L 414.21,846.38 L 409.93,848.00 L 405.69,849.52 L 401.47,850.93 L 397.29,852.24 L 393.13,853.44 L 389.01,854.53 L 384.92,855.51 L 380.87,856.38 L 376.85,857.15 L 372.87,857.81 L 368.93,858.35 L 365.03,858.79 L 361.17,859.12 L 357.35,859.34 L 353.58,859.45 L 349.85,859.45 L 346.17,859.34 L 342.53,859.13 L 338.94,858.80 L 335.40,858.36 L 331.91,857.82 L 328.47,857.16 L 325.09,856.40 L 321.75,855.53 L 318.48,854.55 L 315.25,853.46 L 312.09,852.26 L 308.98,850.96 L 305.92,849.55 L 302.93,848.03 L 300.00,846.41 L 297.13,844.68 L 294.32,842.85 L 291.57,840.91 L 288.89,838.87 L 286.27,836.73 L 283.71,834.48 L 281.23,832.13 L 278.81,829.68 L 276.45,827.13 L 274.16,824.48 L 271.95,821.73 L 269.80,818.88 L 267.72,815.94 L 265.71,812.90 L 263.78,809.76 L 261.92,806.53 L 260.12,803.21 L 258.41,799.79 L 256.76,796.28 L 255.19,792.69 L 253.70,789.00 L 252.27,785.22 L 250.93,781.36 L 249.66,777.41 L 248.47,773.38 L 247.35,769.27 L 246.31,765.07 L 245.35,760.79 L 244.46,756.44 L 243.66,752.00 L 242.93,747.49 L 242.28,742.90 L 241.71,738.24 L 241.21,733.50 L 240.80,728.70 L 240.46,723.82 L 240.20,718.88 L 240.03,713.87 L 239.93,708.80 L 239.91,703.66 L 239.97,698.46 L 240.11,693.20 L 240.33,687.88 L 240.63,682.50 L 241.00,677.07 L 241.46,671.58 L 241.99,666.04 L 242.61,660.45 L 243.30,654.81 L 244.07,649.13 L 244.91,643.40 L 245.84,637.62 L 246.84,631.81 L 247.92,625.95 L 249.08,620.05 L 250.31,614.12 L 251.62,608.16 L 253.01,602.16 L 254.47,596.13 L 256.00,590.07 L 257.61,583.98 L 259.29,577.87 L 261.05,571.73 L 262.88,565.57 L 264.78,559.39 L 266.75,553.20 L 268.80,546.98 L 270.91,540.76 L 273.09,534.52 L 275.35,528.27 L 277.67,522.01 L 280.06,515.75 L 282.51,509.48 L 285.04,503.20 L 287.63,496.93 L 290.28,490.66 L 292.99,484.39 L 295.77,478.12 L 298.62,471.86 L 301.52,465.61 L 304.48,459.37 L 307.51,453.15 L 310.59,446.93 L 313.73,440.74 L 316.92,434.56 L 320.18,428.40 L 323.48,422.26 L 326.84,416.15 L 330.26,410.06 L 333.72,404.00 L 337.24,397.97 L 340.80,391.97 L 344.42,386.00 L 348.08,380.07 L 351.79,374.17 L 355.54,368.32 L 359.34,362.50 L 363.18,356.72 L 367.06,350.99 L 370.98,345.30 L 374.94,339.67 L 378.94,334.08 L 382.97,328.54 L 387.05,323.05 L 391.15,317.61 L 395.29,312.24 L 399.46,306.91 L 403.66,301.65 L 407.90,296.45 L 412.15,291.31 L 416.44,286.23 L 420.75,281.22 L 425.09,276.28 L 429.45,271.40 L 433.83,266.60 L 438.23,261.86 L 442.64,257.20 L 447.08,252.61 L 451.53,248.09 L 456.00,243.66 L 460.48,239.30 L 464.97,235.02 L 469.48,230.82 L 473.99,226.70 L 478.51,222.67 L 483.04,218.72 L 487.57,214.86 L 492.10,211.08 L 496.64,207.39 L 501.18,203.79 L 505.72,200.28 L 510.26,196.86 L 514.79,193.54 L 519.32,190.31 L 523.85,187.17 L 528.36,184.13 L 532.87,181.18 L 537.37,178.33 L 541.85,175.58 L 546.33,172.93 L 550.79,170.37 L 555.23,167.92 L 559.66,165.57 L 564.07,163.32 L 568.46,161.17 L 572.83,159.13 L 577.17,157.19 L 581.50,155.36 L 585.79,153.62 L 590.07,152.00 L 594.31,150.48 L 598.53,149.07 L 602.71,147.76 L 606.87,146.56 L 610.99,145.47 L 615.08,144.49 L 619.13,143.62 L 623.15,142.85 L 627.13,142.19 L 631.07,141.65 L 634.97,141.21 L 638.83,140.88 L 642.65,140.66 L 646.42,140.55 L 650.15,140.55 L 653.83,140.66 L 657.47,140.87 L 661.06,141.20 L 664.60,141.64 L 668.09,142.18 L 671.53,142.84 L 674.91,143.60 L 678.25,144.47 L 681.52,145.45 L 684.75,146.54 L 687.91,147.74 L 691.02,149.04 L 694.08,150.45 L 697.07,151.97 L 700.00,153.59 Z" fill="none" stroke="white" stroke-width="9"/>

  <!-- Dots -->
  <circle cx="623.61" cy="880.42" r="20" fill="white"/>
  <circle cx="100.24" cy="486.04" r="20" fill="white"/>
  <circle cx="376.39" cy="119.58" r="20" fill="white"/>
  <circle cx="880.42" cy="376.39" r="20" fill="white"/>
</svg>